<svg xmlns="http://www.w3.org/2000/svg" viewBox="0 0 64 64">
  <!-- Ícone do CorteCerto: janela de esquadria com disco de serra -->
  <rect x="6" y="6" width="36" height="44" rx="4" fill="#475569"/>
  <rect x="11" y="11" width="12" height="16" fill="#bae6fd"/>
  <rect x="25" y="11" width="12" height="16" fill="#7dd3fc"/>
  <rect x="11" y="29" width="12" height="16" fill="#7dd3fc"/>
  <rect x="25" y="29" width="12" height="16" fill="#bae6fd"/>
  <circle cx="46" cy="46" r="13" fill="#ea580c"/>
  <circle cx="46" cy="46" r="5" fill="#fff7ed"/>
  <g fill="#ea580c">
    <path d="M46 30l3 5h-6z"/>
    <path d="M46 62l-3-5h6z"/>
    <path d="M30 46l5-3v6z"/>
    <path d="M62 46l-5 3v-6z"/>
    <path d="M35 35l5.5 1.5-4 4z"/>
    <path d="M57 57l-5.5-1.5 4-4z"/>
    <path d="M57 35l-1.5 5.5-4-4z"/>
    <path d="M35 57l1.5-5.5 4 4z"/>
  </g>
</svg>
