<svg xmlns="http://www.w3.org/2000/svg" viewBox="0 0 64 64">
  <!-- Ícone do CorteCerto: chapa de madeira com disco de serra -->
  <rect x="4" y="10" width="38" height="40" rx="4" fill="#b98a4e"/>
  <rect x="4" y="10" width="38" height="40" rx="4" fill="none" stroke="#7c4a12" stroke-width="2.5"/>
  <path d="M8 22 q 8 -3 15 0 t 15 0" stroke="rgba(60,30,5,0.35)" stroke-width="2" fill="none"/>
  <path d="M8 32 q 8 -3 15 0 t 15 0" stroke="rgba(60,30,5,0.35)" stroke-width="2" fill="none"/>
  <path d="M8 42 q 8 -3 15 0 t 15 0" stroke="rgba(60,30,5,0.35)" stroke-width="2" fill="none"/>
  <line x1="27" y1="10" x2="27" y2="50" stroke="#dc2626" stroke-width="2.5" stroke-dasharray="4 3"/>
  <circle cx="46" cy="46" r="13" fill="#ea580c"/>
  <circle cx="46" cy="46" r="5" fill="#fff7ed"/>
  <g fill="#ea580c">
    <path d="M46 30l3 5h-6z"/>
    <path d="M46 62l-3-5h6z"/>
    <path d="M30 46l5-3v6z"/>
    <path d="M62 46l-5 3v-6z"/>
    <path d="M35 35l5.5 1.5-4 4z"/>
    <path d="M57 57l-5.5-1.5 4-4z"/>
    <path d="M57 35l-1.5 5.5-4-4z"/>
    <path d="M35 57l1.5-5.5 4 4z"/>
  </g>
</svg>
